<?xml version="1.0" standalone="no"?>
<!DOCTYPE svg PUBLIC "-//W3C//DTD SVG 20010904//EN"
 "http://www.w3.org/TR/2001/REC-SVG-20010904/DTD/svg10.dtd">
<svg version="1.0" xmlns="http://www.w3.org/2000/svg"
 width="117.000000pt" height="117.000000pt" viewBox="0 0 117.000000 117.000000"
 preserveAspectRatio="xMidYMid meet">
<metadata>
Created by potrace 1.11, written by Peter Selinger 2001-2013
</metadata>
<g transform="translate(0.000000,117.000000) scale(0.100000,-0.100000)"
fill="#000000" stroke="none">
<path d="M480 1079 c-63 -39 -143 -86 -177 -105 l-62 -35 -104 60 c-57 34
-111 61 -121 61 -42 0 -4 -38 94 -95 l105 -61 2 -205 3 -204 -80 -44 c-55 -30
-80 -50 -80 -63 0 -27 17 -22 103 27 l79 45 55 -36 c54 -34 83 -38 83 -12 0 7
-26 30 -59 50 l-59 37 1 200 0 200 166 98 c90 54 167 99 170 100 4 2 83 -42
176 -97 l170 -100 1 -193 c1 -105 -1 -198 -5 -205 -4 -7 -86 -59 -182 -115
l-174 -102 -1 -123 c-1 -98 2 -125 13 -129 24 -9 28 6 29 110 1 56 2 105 3
109 0 4 82 55 181 114 l180 106 0 214 0 213 80 47 c87 50 98 60 81 77 -9 9
-25 4 -64 -18 -29 -16 -68 -38 -87 -48 l-35 -19 -165 97 c-91 53 -169 101
-174 106 -16 15 -25 11 -146 -62z"/>
<path d="M545 1005 c-14 -13 -25 -29 -25 -35 0 -29 32 -68 70 -85 27 -12 49
-32 65 -59 21 -36 24 -52 21 -124 -3 -97 -10 -107 -86 -127 -74 -20 -99 -68
-58 -112 49 -52 113 -15 117 69 1 9 12 30 26 46 22 26 29 29 68 25 52 -6 82 7
101 45 24 48 2 103 -48 123 -76 29 -94 42 -114 78 -14 24 -22 56 -22 84 0 85
-63 125 -115 72z"/>
<path d="M492 704 c-12 -8 -22 -24 -22 -34 0 -43 -23 -71 -68 -83 -24 -6 -48
-20 -54 -31 -15 -28 5 -63 41 -71 16 -3 41 -18 56 -33 21 -21 25 -33 21 -56
-13 -61 -80 -121 -157 -139 -32 -8 -43 -31 -29 -58 19 -34 57 -24 80 20 24 49
71 85 130 102 59 17 70 26 70 60 0 30 -23 49 -59 49 -29 0 -61 51 -61 97 0 48
26 78 79 93 47 12 63 50 35 81 -21 23 -33 24 -62 3z"/>
</g>
</svg>
